<?xml version="1.0" encoding="UTF-8" standalone="no"?>
<!-- Created with Inkscape (http://www.inkscape.org/) -->

<svg
   width="146.69724mm"
   height="102.39994mm"
   viewBox="0 0 146.69724 102.39994"
   version="1.1"
   id="svg8"
   inkscape:version="1.2.1 (9c6d41e410, 2022-07-14)"
   sodipodi:docname="figure1.svg"
   xmlns:inkscape="http://www.inkscape.org/namespaces/inkscape"
   xmlns:sodipodi="http://sodipodi.sourceforge.net/DTD/sodipodi-0.dtd"
   xmlns="http://www.w3.org/2000/svg"
   xmlns:svg="http://www.w3.org/2000/svg"
   xmlns:rdf="http://www.w3.org/1999/02/22-rdf-syntax-ns#"
   xmlns:cc="http://creativecommons.org/ns#"
   xmlns:dc="http://purl.org/dc/elements/1.1/">
  <defs
     id="defs2">
    <clipPath
       clipPathUnits="userSpaceOnUse"
       id="clipPath1457">
      <path
         id="path1459"
         style="fill:#ff0000;fill-opacity:1;fill-rule:nonzero;stroke:none;stroke-width:0.264359"
         d="M 70.828822,206.13565 8.4377188,193.71154 c -0.0955,0.57558 -0.4066747,1.19291 -1.0015124,1.78476 -0.1471353,0.14639 -0.282864,0.30458 -0.441256,0.43876 -0.609012,0.51589 -1.219456,0.9114 -1.9961475,1.12043 -0.2826143,0.0761 -0.6666416,0.10203 -0.4066016,0.0834 0.028154,-0.005 0.056358,-0.009 0.08457,-0.0131 0.017973,-0.003 -0.035367,0.007 -0.053097,0.011 -0.02085,0.001 -0.015697,0.001 -0.031478,0.002 -0.2084693,0.0342 -0.4158679,0.0833 -0.6248866,0.11025 -0.1289473,0.0795 -0.2594147,0.15691 -0.3947325,0.22488 -0.03672,0.0184 -0.098765,0.0413 -0.1631591,0.0631 -0.1917423,0.20799 -0.306846,0.34471 -0.3685655,0.42435 -0.060137,0.10935 -0.1081305,0.13956 0,0 0.024862,-0.0452 0.050851,-0.10353 0.068979,-0.16897 -0.077946,0.0504 -0.1815085,0.11609 -0.2327076,0.15056 -0.034439,0.0127 -0.06876,0.0262 -0.1030153,0.0393 -0.1023723,0.064 -0.2056218,0.1267 -0.3139193,0.18005 -0.1238804,0.061 -0.2648268,0.0808 -0.3957528,0.12545 -0.096218,0.0328 -0.1975542,0.08 -0.2947473,0.1235 -0.00842,0.009 -0.019115,0.0174 -0.028978,0.0263 L -4.1408089,231.01393 63.891125,244.5619 Z M 2.7741155,197.98233 c 0.1129905,-0.0707 0.2251468,-0.14286 0.3411421,-0.20825 0.025688,-0.10447 0.027596,-0.22428 -0.033448,-0.3343 -0.056761,0.0331 -0.1144874,0.0656 -0.1750674,0.0969 -0.00631,0.004 -0.012031,0.01 -0.018373,0.0142 -0.2057542,0.1445 -0.4231125,0.28493 -0.6484047,0.41274 0.1050906,0.0326 0.2018859,0.0642 0.278282,0.0932 0.025262,0.01 0.053994,-0.003 0.079446,-0.011 0.05961,-0.0189 0.1180966,-0.0411 0.1764242,-0.0636 z m 0.3411421,-0.20825 c -0.00162,0.006 -0.0038,0.0121 -0.00546,0.0183 0.078756,-0.051 0.13147,-0.0863 0.076213,-0.0573 -0.023787,0.0125 -0.047398,0.0257 -0.070794,0.0389 z m -0.3184618,-5.18589 -0.00586,0.0324 c 0.1311258,0.004 0.2582005,0.0197 0.3808152,0.0449 0.08466,0.0174 0.1659642,0.0414 0.2459674,0.0679 0.016345,-0.004 0.03268,-0.008 0.049024,-0.0118 z m 0.7579548,0.15094 c -0.025079,0.005 -0.050105,0.01 -0.074999,0.0155 0.020682,0.008 0.039861,0.0175 0.060192,0.0256 0.0087,-0.0102 0.022428,-0.0232 0.037699,-0.0366 z m 0.082917,0.0165 c -0.024428,0.0129 -0.049106,0.0247 -0.07473,0.0345 0.039409,0.0163 0.079415,0.0316 0.1174163,0.0502 0.1374799,0.006 0.2748373,0.01 0.4115765,0.006 z m 59.4060664,13.84958 -9.4e-5,5.2e-4 -9.3e-5,5.2e-4 -9.4e-5,5.2e-4 -1.9e-4,10e-4 -1.9e-4,0.001 c 0.005,0.002 -0.50746,0.0651 -0.634621,0.1204 -0.05736,0.0153 -0.23153,0.0385 -0.172205,0.046 0.114586,0.0145 0.229141,-0.0222 0.344304,-0.0244 0.04068,-7.1e-4 0.160669,0.005 0.121608,0.0153 -0.267683,0.0735 -0.541238,0.12859 -0.813212,0.18723 -0.0019,0.003 -0.0035,0.006 -0.0053,0.009 0.07549,-0.002 0.15017,0.003 0.219408,0.0311 0.08611,0.0348 -0.08396,0.007 -0.234291,-0.004 -0.01975,0.0481 -0.02213,0.1 -0.01056,0.15488 l -9.4e-5,5.2e-4 c 0.60227,0.1019 0.360552,0.0623 1.93e-4,0.002 l -9.4e-5,5.2e-4 c 0.222112,1.01296 5.397533,3.11119 2.385452,3.8307 -2.201413,0.52585 0.213647,-0.0556 -0.582242,0.14553 -0.1813,0.0484 -0.310022,0.0826 -0.463409,0.11196 -0.748503,0.29373 -0.440755,0.22839 -1.345195,0.29078 -0.200719,0.06 -0.401973,0.11802 -0.609987,0.14158 -0.110952,0.0126 -0.216992,0.0169 -0.320655,0.016 -0.0036,0.0155 -0.007,0.0311 -0.01111,0.0466 -0.849793,3.54948 -4.815524,2.70595 -4.516712,-0.55502 -0.197584,-0.0349 -0.394223,-0.0769 -0.589772,-0.12218 -0.0071,-0.002 -0.02008,-0.004 -0.02841,-0.006 -0.04549,0.01 -0.09099,0.02 -0.137107,0.0268 -0.274834,0.0404 -0.549684,0.0972 -0.828219,0.0981 -0.194703,4.5e-4 -0.341746,-0.007 -0.469711,-0.0195 -0.926319,0.40602 -1.787015,0.7088 -2.854873,0.50312 -0.06566,-0.0125 -0.129789,-0.0316 -0.192505,-0.0546 -0.01651,0.003 -0.03307,0.006 -0.04959,0.009 -0.0011,3.2e-4 -0.0026,0.001 -0.0039,0.001 0.178953,0.18431 0.356453,0.37044 0.51954,0.56079 0.138908,0.16216 0.257605,0.33434 0.362048,0.51367 0.111676,0.0488 0.22411,0.0952 0.335329,0.14502 3.576551,1.60077 2.396725,5.83452 -1.229231,4.35367 -0.662466,-0.27055 -0.917225,-0.35145 -1.301795,-0.5538 -0.300544,-0.0212 -0.564238,-0.12589 -0.561438,-0.32288 -0.0035,-0.002 -0.0059,-0.003 -0.0094,-0.006 -0.164199,-0.10025 -0.552042,-0.16503 -0.47007,-0.33566 0.223323,-0.46481 0.530879,-0.88528 0.855331,-1.29616 0.367739,-1.55552 0.597525,-2.42578 0.771503,-2.8371 -0.164543,0.0168 -0.316374,0.0586 -0.412765,0.12625 -0.184528,0.1296 -0.350249,0.27958 -0.5031,0.44273 0.299445,0.0638 0.05396,0.26055 -0.387616,0.47149 0.121686,-0.16497 0.249321,-0.32349 0.387523,-0.47099 -0.01632,-0.003 -0.03228,-0.007 -0.05189,-0.0103 -0.924945,-0.12556 -1.733995,0.61475 -2.591525,0.99136 0.01639,0.015 0.03262,0.0301 0.04872,0.0454 0.106933,0.0511 0.196324,0.0817 0.250974,0.0752 0.468811,-0.0555 1.377983,-0.35477 1.955091,-0.63032 -0.374755,0.50839 -0.692355,1.07704 -1.083142,1.56845 0.187282,0.67775 0.299983,0.79791 0.08772,0.50945 -0.03672,-0.0499 -0.0564,-0.11891 -0.109932,-0.15001 -0.04835,-0.0281 0.136876,0.17428 0.09281,0.13977 -0.0021,-0.002 -0.514877,-0.53288 -0.522602,-0.54092 -0.203901,-0.23743 -0.321463,-0.36524 -0.457651,-0.54164 -0.109435,-0.0593 -0.218931,-0.11847 -0.328366,-0.17775 -0.140121,-0.11576 -0.287025,-0.22396 -0.423211,-0.34418 -0.364367,-0.12971 -0.702898,-0.3132 -1.025485,-0.52556 -0.113978,0.0144 -0.248095,0.028 -0.388702,0.0397 -0.0414,0.0225 -0.03569,0.019 -0.08114,0.0437 -0.163623,0.0602 -0.324303,0.12915 -0.491062,0.18049 -0.574851,0.17704 -1.220604,0.34724 -1.833572,0.37467 -0.02422,0.0119 -0.04906,0.0234 -0.07288,0.0359 -0.543197,0.28571 -1.121135,0.42454 -1.712483,0.58256 -0.433011,0.0948 -0.999887,0.24505 -1.450691,0.23879 -0.185257,-0.003 -0.370386,-0.023 -0.554774,-0.0475 -0.152857,0.035 -0.306353,0.0664 -0.462447,0.0833 -0.287342,0.031 -0.579005,-0.0153 -0.868663,-0.0223 -0.429904,-0.0104 -0.770273,-0.007 -1.201285,-0.0539 -0.799778,-0.087 -0.374617,-0.10295 -0.684148,-0.0869 -0.791392,0.0173 -1.584742,0.036 -2.376364,0.0623 -1.015273,0.0581 -2.039808,0.007 -3.052838,0.0993 -0.168852,0.0154 -0.336014,0.0417 -0.503153,0.0694 0.02369,0.0825 0.04965,0.16129 0.06981,0.24966 0.0657,0.28797 0.0785,0.58443 0.117859,0.87669 0.33069,2.45556 -2.273528,0.46265 -3.783234,-0.41736 -0.121892,0.0331 -0.243937,0.0656 -0.369968,0.0702 -0.187605,0.007 -0.375457,0.004 -0.563481,-0.005 0.112272,0.23942 0.243538,0.53783 0.248052,0.71307 0.0013,0.0516 -0.04533,-0.0933 -0.06799,-0.14008 -0.116972,-0.24148 -0.190624,-0.42817 -0.233235,-0.57623 -0.172734,-0.009 -0.345493,-0.0232 -0.517549,-0.0406 -0.134094,-0.0136 -0.282672,-0.0245 -0.391425,-0.10578 -0.100628,-0.0752 0.243209,0.0576 0.364901,0.0863 0.284154,-0.0322 0.423716,-0.0397 0.516919,-0.0493 -0.0067,-0.0343 -0.01372,-0.0688 -0.01567,-0.0971 0.01116,0.0229 0.03014,0.0672 0.04349,0.0948 0.07998,-0.01 0.140193,-0.0338 0.2224,-0.0759 -0.08672,-0.0186 -0.174353,-0.0471 -0.263244,-0.086 -0.0021,0.0205 -0.0046,0.0409 -0.003,0.0661 -0.01719,-0.0351 -0.03019,-0.0619 -0.04149,-0.0854 -0.0033,-0.002 -0.0065,-0.002 -0.0098,-0.004 -0.166031,0.0264 -0.122825,5.9e-4 -0.792795,0.007 -0.599388,0.006 -0.794956,0.0326 -1.429003,-0.0536 -0.57385,-0.0779 -0.888887,-0.1789 -1.428491,-0.3249 -0.627495,-0.19282 -1.275458,-0.29267 -1.919586,-0.40695 -0.135957,0.0397 -0.273476,0.0741 -0.41011,0.11156 -0.460981,0.20889 -0.947739,0.21024 -1.443789,0.27062 -0.02044,0.002 -0.07662,0.0238 -0.05598,0.024 0.192828,0.003 0.230942,-0.0842 0.178734,0.008 -0.395727,0.20503 -0.796361,0.39564 -1.188769,0.60651 -0.111706,0.06 -0.227785,0.11306 -0.339913,0.17226 -0.146782,0.7967 -0.586733,1.46791 -1.509881,1.36638 -0.555205,-0.0611 -1.023852,-0.16423 -1.415089,-0.3028 0.0845,0.0501 0.167769,0.10134 0.245579,0.15759 0.09032,0.0138 0.199522,-0.0168 0.270788,0.0413 0.04628,0.0378 -0.114856,0.0268 -0.172542,0.0392 -0.374372,0.0785 -0.740462,0.17455 -1.107138,0.2799 0.02971,-0.008 0.05029,-0.0113 0.03616,0.004 -0.05599,0.062 -0.146475,0.0807 -0.218333,0.12349 -0.489271,0.29128 -0.875242,0.40893 -1.414611,0.54684 -0.165754,0.0265 -0.328983,0.0709 -0.496986,0.079 -0.08903,0.004 -0.178643,0.002 -0.267894,-0.002 -0.1711511,0.0361 -0.3425031,0.0711 -0.5136682,0.1072 -0.5220928,-0.0629 -0.8081099,-0.0954 -1.0104822,-0.11827 0.1644379,0.0121 0.2190486,6.1e-4 -0.3963807,-0.11043 -0.014164,-0.003 -0.019426,0.0257 -0.033742,0.0264 -0.095287,0.004 -0.1910238,-0.007 -0.2863598,-0.0134 -0.00107,-7e-5 -0.00314,1.8e-4 -0.00425,2.3e-4 -0.2053974,0.13305 -0.8628909,0.14158 -1.0299245,0.16454 -0.019187,0.003 0.073089,0.0182 0.054362,0.0229 -0.093552,0.0235 -0.1901439,0.0348 -0.2862022,0.047 -0.05835,0.037 -0.1164809,0.0744 -0.1754124,0.11051 -0.082336,0.0504 -0.1696901,0.093 -0.2544087,0.13941 -0.4483646,0.27628 -0.1431908,0.10292 -0.9507507,0.45281 -3.5446809,1.5358 -1.9951867,-8.1395 -1.6852957,-4.2557 0.015218,0.19072 -0.00776,0.0443 0.3937701,-0.19619 0.088045,-0.0482 0.1674476,-0.17567 0.2642465,-0.14427 0.00411,0.001 0.00657,0.003 0.0086,0.005 0.088259,-0.0704 0.1768608,-0.14066 0.2755239,-0.19506 0.4012903,-0.2213 0.8124067,-0.33833 1.2606676,-0.40055 0.2718726,-0.0405 0.4375156,-0.0645 0.6723892,-0.0961 0.016601,-0.009 0.068986,-0.0264 0.070342,-0.0102 0.00758,-9.1e-4 0.014309,-0.002 0.022129,-0.003 0.1061962,-0.0309 0.2121216,-0.0619 0.3182424,-0.0931 0.3283733,-0.0368 0.6551568,-0.0856 0.9848615,-0.11051 0.070488,-0.005 0.1411803,0.0154 0.2118999,0.0202 0.571495,0.0388 0.525785,0.007 1.2059407,0.12149 0.063542,0.0108 0.1750153,0.006 0.2576089,0.0151 0.1577367,-0.0283 0.3155854,-0.0496 0.4445239,-0.0511 0.3495755,-0.21209 0.7425705,-0.36431 1.1081525,-0.53068 0.588447,-0.17045 1.178709,-0.33479 1.781311,-0.43548 0.117761,-0.10643 0.236551,-0.21188 0.362404,-0.3085 0.70942,-0.54462 1.5375,-0.89387 2.326934,-1.30344 0.539963,-0.26364 0.615597,-0.33791 1.237975,-0.47332 0.1941,-0.0422 0.395094,-0.0497 0.592546,-0.0742 -0.06283,0.0194 -0.155446,0.001 -0.188593,0.058 -0.110162,0.18805 1.283191,-0.70473 0.629741,-0.18385 0.05822,-0.0132 0.115702,-0.0296 0.174668,-0.0393 0.0055,-7.9e-4 -0.01599,0.0143 -0.01069,0.0126 0.23312,-0.0766 0.452504,-0.20447 0.696391,-0.23778 0.716177,-0.0978 0.793266,-0.0589 1.253302,0.0343 0.864079,0.16366 1.73876,0.28475 2.582752,0.54583 0.306917,0.0886 0.625751,0.20959 0.947714,0.22076 0.82908,0.0287 1.660682,-0.0678 2.490386,8.1e-4 0.0021,0.002 0.0038,0.005 0.0059,0.008 0.397198,-0.0679 0.420954,-0.0609 1.173417,-0.13911 0.0063,-6.3e-4 0.01248,-9.8e-4 0.01882,-0.002 0.913988,-0.17669 1.834153,-0.34101 2.762985,-0.42324 1.032542,-0.0914 2.075973,-0.0457 3.110755,-0.10196 0.953935,-0.0312 1.909056,-0.0703 2.86455,-0.0517 0.174071,0.0165 0.348123,0.0334 0.52219,0.0499 0.04769,0.0122 0.09435,0.0303 0.143098,0.0364 0.393975,0.0486 0.667599,0.0272 1.085609,0.0466 0.108005,0.005 0.388189,-0.0543 0.32328,0.0308 -0.106169,0.13919 -0.327402,0.12674 -0.491182,0.18991 -0.496702,0.38547 -0.07473,0.048 1.465798,-0.2174 -0.01855,-3.6e-4 -0.0285,-0.001 -0.0098,-0.004 0.02968,-0.004 0.05961,-0.007 0.08962,-0.009 -0.02627,0.004 -0.05418,0.009 -0.07981,0.013 0.03785,7.6e-4 0.123912,-0.001 0.162442,-7.3e-4 0.02947,-0.006 0.05885,-0.0128 0.08831,-0.0192 -0.05658,0.003 -0.113306,0.004 -0.16983,0.007 0.06757,-0.0113 0.133673,-0.0233 0.205375,-0.0342 0.01196,-0.002 0.03559,0.003 0.05176,0.008 0.133128,-0.0287 0.266024,-0.0572 0.399155,-0.0859 0.273174,-0.0582 0.404227,-0.0705 0.650425,-0.17291 0.130988,-0.0545 0.242187,-0.19344 0.384738,-0.18119 0.10889,0.009 -0.187087,0.11336 -0.261707,0.19152 -0.158051,0.1656 -0.646297,0.61522 -0.431184,0.53475 0.740528,-0.277 1.380362,-0.76501 2.070616,-1.14761 0.101203,0.009 0.326963,-0.0622 0.327685,0.0122 0.241806,-0.0472 0.483959,-0.11021 0.712707,-0.19096 -0.770718,0.57223 0.207617,-0.17336 0.607736,-0.28379 0.211999,-0.0585 0.40641,-0.0922 0.575421,-0.11066 0.07788,-0.0632 0.23274,-0.0971 0.461344,-0.10345 0.418709,-0.25591 0.961098,-0.41696 1.626277,-0.42908 0.518753,-0.71712 1.559046,-1.1488 3.012189,-0.79943 0.212147,0.051 0.106044,0.0252 0.316897,0.0778 0.02111,0.006 0.02811,0.008 0.04066,0.0112 0.06657,0.004 0.115835,0.0281 0.470763,0.0633 -0.01239,0.002 -0.02429,0.006 -0.03576,0.0113 -0.03173,0.0149 0.07113,0.006 0.106144,0.002 0.0096,-9.9e-4 0.01854,-0.003 0.0281,-0.004 -0.03724,-0.003 -0.06639,-0.006 -0.0983,-0.0101 0.03769,-0.007 0.07863,-0.004 0.116984,-0.009 0.01288,0.002 0.03958,0.005 0.05812,0.008 0.0031,-4.6e-4 0.0065,-5.9e-4 0.0096,-7.8e-4 8.28e-4,-1e-4 0.0017,-2.1e-4 0.0028,-5.2e-4 0.121757,-0.0243 0.243064,-0.049 0.365065,-0.0722 0.761297,-0.10924 1.459585,-0.43488 2.231199,-0.48713 0.03092,-0.002 0.07958,-0.003 0.127212,-0.004 0.533726,-0.082 1.021114,-0.10673 1.587382,0.0315 0.103163,-0.0458 0.224711,-0.0457 0.337811,-0.0614 0.687874,-0.0952 0.586443,-0.0669 1.286563,-0.0273 0.372182,-0.46479 0.576493,0.26143 0.881546,0.26324 0.03184,1.9e-4 0.0556,-0.0323 0.0866,-0.0389 0.07224,-0.0154 0.146644,-0.0206 0.220412,-0.027 0.186717,-0.0161 0.345775,-0.0195 0.530554,-0.0256 0.155471,0.0232 0.310353,0.0521 0.465658,0.077 -0.0289,-0.0112 -0.04085,-0.0249 -0.01902,-0.0405 0.117075,-0.0847 0.291435,0.0209 0.43678,0.0355 0.33666,0.0339 0.650925,0.095 0.976807,0.17928 0.0021,4e-4 0.0052,8.3e-4 0.0067,8e-4 0.08583,0.0152 0.152059,0.0281 0.237094,0.0441 0.190996,0.0381 0.382148,0.0769 0.573112,0.1152 0.09215,-0.0259 0.183919,-0.0517 0.275972,-0.0779 0.463472,0.0772 0.08782,0.0148 0.364206,0.061 0.0032,-7.1e-4 0.0063,-0.002 0.0095,-0.003 -0.08955,-0.0157 -0.260515,-0.0443 -0.266731,-0.0463 -0.171964,-0.0551 0.356705,-0.0425 0.536107,-0.0476 0.05271,-0.001 0.106349,-0.006 0.160255,-0.009 0.01796,-0.004 0.03591,-0.008 0.05388,-0.0124 0.09585,-0.15426 0.383211,-0.2672 0.943321,-0.32409 0.150091,-0.0152 0.20915,-0.0212 0.210807,-0.0205 z m -1.185612,0.53941 c -0.216693,-0.0367 -0.301177,-0.0513 -0.437041,-0.075 -0.0026,8.3e-4 -0.0052,0.001 -0.0078,0.002 0.328147,0.0547 0.337478,0.0565 0.445035,0.0745 -2.2e-5,-1.6e-4 -1.19e-4,-8.3e-4 -1.92e-4,-0.002 z m -0.133244,-0.15517 c -0.0028,2.5e-4 -0.007,2.2e-4 -0.0096,7.8e-4 -0.05944,0.0104 -0.117571,0.0258 -0.175308,0.0428 0.06146,-0.015 0.123114,-0.0296 0.184921,-0.0435 z M 4.472637,196.46134 c -0.00183,-3.4e-4 -0.00595,0.002 -0.011914,0.008 -0.2453306,0.23829 -0.4497972,0.44225 -0.6235174,0.61932 0.093091,0.0315 0.119888,0.0746 0.1518137,0.099 0.1734237,-0.15201 0.2478381,-0.29658 0.3985053,-0.5318 0.021352,-0.0543 0.098264,-0.19169 0.085111,-0.19413 z m 50.423441,10.16688 c -0.01186,-0.003 -0.02839,-0.004 -0.04651,-0.005 0.01365,0.004 0.02689,0.007 0.04065,0.0112 0.129682,0.0376 0.249614,0.10398 0.37446,0.15596 -0.06738,-0.0321 -0.284253,-0.14098 -0.3686,-0.16214 z M 4.7705785,196.78425 c -0.00264,-10e-4 -0.011476,0.002 -0.028187,0.0101 -0.2452895,0.11785 -0.4735664,0.26675 -0.7044829,0.41102 0.052151,0.004 0.1441731,-0.0273 0.3616304,-0.12908 0.09994,-0.0823 0.389688,-0.2855 0.3710337,-0.29208 z m -0.8667661,0.47217 c -0.074679,0.008 -0.1491335,0.0129 -0.224552,0.012 -0.00446,-8e-5 -0.011501,-4.1e-4 -0.016226,-5.4e-4 -0.071484,0.0744 -0.1359915,0.14316 -0.1941416,0.20549 0.089693,-0.0232 0.1792077,-0.0475 0.2564783,-0.0954 0.069116,-0.0428 0.1272955,-0.0828 0.1784425,-0.12145 z m 46.5086846,9.87086 c -0.0256,0.004 -0.05113,0.008 -0.07681,0.011 0.0037,1.9e-4 0.0092,7.5e-4 0.01299,9.7e-4 0.02155,-0.004 0.04331,-0.007 0.06484,-0.0118 -2.62e-4,-3e-5 -7.85e-4,-1.4e-4 -10e-4,-2.2e-4 z m -0.820595,-0.0521 c -0.05668,0.004 -0.137116,0.0138 -0.09983,0.0101 0.04259,-0.004 0.06979,-0.007 0.09983,-0.0101 z m 14.512069,3.43287 c -0.02519,-0.004 -0.156571,0.10002 -0.482524,0.42214 0.05271,-0.0154 0.105436,-0.0308 0.157363,-0.0485 0.08958,-0.0304 0.369617,-0.36686 0.325161,-0.37367 z m -1.993926,0.97385 c -0.0214,-0.004 -0.04286,-0.008 -0.06429,-0.0117 -0.06194,0.0181 -0.123964,0.0363 -0.185919,0.0549 0.01361,-0.002 0.02641,-0.004 0.03951,-0.006 0.07038,-0.012 0.281366,-0.0244 0.21068,-0.0373 z m -0.100073,-0.0178 c -0.331167,-0.0604 -0.663819,-0.11757 -0.997662,-0.15719 -0.0033,0.014 -0.0062,0.0282 -0.0098,0.0422 0.349492,0.0444 0.757361,0.0946 0.976384,0.12618 0.01042,-0.003 0.02063,-0.008 0.031,-0.0112 z m -17.372993,-3.1735 c -0.09244,-5.6e-4 -0.200988,0.004 -0.328323,0.0176 -0.08441,0.0685 -0.08232,0.17011 -0.02859,0.29254 0.08541,-0.0912 0.179826,-0.17749 0.284051,-0.25689 -0.04917,-0.003 -0.08816,-0.004 -0.148871,-0.0102 -0.06991,-0.007 0.0334,-0.0111 0.181323,-0.0148 0.01311,-0.01 0.02699,-0.0187 0.0404,-0.0282 z m 11.468865,2.7024 -9.7e-5,5.2e-4 c -0.01632,-0.003 -0.03794,-0.006 -0.04882,-0.004 -0.04805,0.007 -0.09569,0.0172 -0.143069,0.0277 0.06954,-0.003 0.13974,-0.002 0.208091,-0.0142 0.01086,-0.002 3e-6,-0.006 -0.01611,-0.01 z m -13.939788,-2.06086 c -0.03424,-0.007 -0.06744,-0.0113 -0.09552,-0.008 -0.03581,0.004 0.06244,0.014 0.105603,0.0105 -0.0034,-7.1e-4 -0.0068,-0.001 -0.01016,-0.002 z m 9.021046,2.99412 c 0.04656,0.063 0.09684,0.12835 0.152036,0.1941 -0.0039,-0.0819 -0.062,-0.14636 -0.152036,-0.1941 z m -3.527687,2.17479 c 0.0335,0.0234 0.07294,0.0383 0.108468,0.0589 -0.03617,-0.0196 -0.0723,-0.0393 -0.108468,-0.0589 z m -5.708288,-0.6831 c -0.197229,-0.0196 -0.294596,-0.0314 -0.0088,0.005 0.0031,-0.002 0.0058,-0.004 0.0088,-0.005 z m -29.431864,-0.98803 c -0.282969,0.17326 -0.467534,0.47841 -0.577398,0.83379 0.0048,-0.0115 0.0088,-0.023 0.01361,-0.0346 0.126445,-0.30133 0.365383,-0.53879 0.563776,-0.79923 z m 6.469448,1.58394 c -0.26154,-0.051 -0.29714,-0.0114 0.03653,0.008 -0.01116,-0.002 -0.02611,-0.006 -0.03653,-0.008 z M 9.8512061,213.1125 c -0.059475,0.002 -0.1099614,0.0113 -0.1352457,0.034 0.045137,-0.0113 0.090154,-0.0226 0.1352457,-0.034 z m -3.3265335,0.0595 c -0.00326,4.3e-4 -0.00279,5.2e-4 -0.00597,9.6e-4 -1.458e-4,5.1e-4 -4.166e-4,9.9e-4 -7.084e-4,9.4e-4 0.00227,-6.3e-4 0.00438,-0.002 0.00665,-0.002 z m 9.4308344,2.29181 c -0.111269,0.10023 -0.248268,0.24257 -0.292595,0.2867 0.09415,-0.0877 0.229289,-0.14554 0.282517,-0.26298 0.0036,-0.008 0.0065,-0.0158 0.01008,-0.0237 z m -5.9841674,2.16133 c -0.092174,-0.005 -0.1842821,-0.0106 -0.2763705,-0.0104 -0.05767,10e-5 0.1146832,0.0261 0.1721038,0.0217 0.03491,-0.003 0.069556,-0.007 0.1042681,-0.0113 z M 7.0204992,217.5127 c -0.055975,0.0371 -0.1123027,0.0736 -0.1685235,0.1103 0.1064604,-0.0646 0.2323904,-0.1526 0.1685235,-0.1103 z" />
    </clipPath>
    <inkscape:path-effect
       effect="spiro"
       id="path-effect1503"
       is_visible="true"
       lpeversion="1" />
    <inkscape:path-effect
       effect="spiro"
       id="path-effect1507"
       is_visible="true"
       lpeversion="1" />
    <inkscape:path-effect
       effect="spiro"
       id="path-effect1527"
       is_visible="true"
       lpeversion="1" />
    <inkscape:path-effect
       effect="spiro"
       id="path-effect1547"
       is_visible="true"
       lpeversion="1" />
    <marker
       id="marker-arrow-1.0616"
       orient="auto-start-reverse"
       refY="0"
       refX="0"
       markerHeight="1.6900001"
       markerWidth="0.91100001">
      <g
         transform="scale(1.3434313)"
         id="g1652">
        <path
           d="M -1.55415,2.0722 C -1.42464,1.29512 0,0.1295 0.38852,0 0,-0.1295 -1.42464,-1.29512 -1.55415,-2.0722"
           style="fill:none;stroke:#000000;stroke-width:0.6;stroke-linecap:round;stroke-linejoin:round;stroke-miterlimit:10;stroke-dasharray:none;stroke-opacity:1"
           inkscape:connector-curvature="0"
           id="path1650" />
      </g>
    </marker>
    <clipPath
       clipPathUnits="userSpaceOnUse"
       id="clipPath361">
      <path
         id="path359"
         style="fill:#ff0000;fill-opacity:1;fill-rule:nonzero;stroke:none;stroke-width:0.264359"
         d="M 70.828822,206.13565 8.4377188,193.71154 c -0.0955,0.57558 -0.4066747,1.19291 -1.0015124,1.78476 -0.1471353,0.14639 -0.282864,0.30458 -0.441256,0.43876 -0.609012,0.51589 -1.219456,0.9114 -1.9961475,1.12043 -0.2826143,0.0761 -0.6666416,0.10203 -0.4066016,0.0834 0.028154,-0.005 0.056358,-0.009 0.08457,-0.0131 0.017973,-0.003 -0.035367,0.007 -0.053097,0.011 -0.02085,0.001 -0.015697,0.001 -0.031478,0.002 -0.2084693,0.0342 -0.4158679,0.0833 -0.6248866,0.11025 -0.1289473,0.0795 -0.2594147,0.15691 -0.3947325,0.22488 -0.03672,0.0184 -0.098765,0.0413 -0.1631591,0.0631 -0.1917423,0.20799 -0.306846,0.34471 -0.3685655,0.42435 -0.060137,0.10935 -0.1081305,0.13956 0,0 0.024862,-0.0452 0.050851,-0.10353 0.068979,-0.16897 -0.077946,0.0504 -0.1815085,0.11609 -0.2327076,0.15056 -0.034439,0.0127 -0.06876,0.0262 -0.1030153,0.0393 -0.1023723,0.064 -0.2056218,0.1267 -0.3139193,0.18005 -0.1238804,0.061 -0.2648268,0.0808 -0.3957528,0.12545 -0.096218,0.0328 -0.1975542,0.08 -0.2947473,0.1235 -0.00842,0.009 -0.019115,0.0174 -0.028978,0.0263 L -4.1408089,231.01393 63.891125,244.5619 Z M 2.7741155,197.98233 c 0.1129905,-0.0707 0.2251468,-0.14286 0.3411421,-0.20825 0.025688,-0.10447 0.027596,-0.22428 -0.033448,-0.3343 -0.056761,0.0331 -0.1144874,0.0656 -0.1750674,0.0969 -0.00631,0.004 -0.012031,0.01 -0.018373,0.0142 -0.2057542,0.1445 -0.4231125,0.28493 -0.6484047,0.41274 0.1050906,0.0326 0.2018859,0.0642 0.278282,0.0932 0.025262,0.01 0.053994,-0.003 0.079446,-0.011 0.05961,-0.0189 0.1180966,-0.0411 0.1764242,-0.0636 z m 0.3411421,-0.20825 c -0.00162,0.006 -0.0038,0.0121 -0.00546,0.0183 0.078756,-0.051 0.13147,-0.0863 0.076213,-0.0573 -0.023787,0.0125 -0.047398,0.0257 -0.070794,0.0389 z m -0.3184618,-5.18589 -0.00586,0.0324 c 0.1311258,0.004 0.2582005,0.0197 0.3808152,0.0449 0.08466,0.0174 0.1659642,0.0414 0.2459674,0.0679 0.016345,-0.004 0.03268,-0.008 0.049024,-0.0118 z m 0.7579548,0.15094 c -0.025079,0.005 -0.050105,0.01 -0.074999,0.0155 0.020682,0.008 0.039861,0.0175 0.060192,0.0256 0.0087,-0.0102 0.022428,-0.0232 0.037699,-0.0366 z m 0.082917,0.0165 c -0.024428,0.0129 -0.049106,0.0247 -0.07473,0.0345 0.039409,0.0163 0.079415,0.0316 0.1174163,0.0502 0.1374799,0.006 0.2748373,0.01 0.4115765,0.006 z m 59.4060664,13.84958 -9.4e-5,5.2e-4 -9.3e-5,5.2e-4 -9.4e-5,5.2e-4 -1.9e-4,10e-4 -1.9e-4,0.001 c 0.005,0.002 -0.50746,0.0651 -0.634621,0.1204 -0.05736,0.0153 -0.23153,0.0385 -0.172205,0.046 0.114586,0.0145 0.229141,-0.0222 0.344304,-0.0244 0.04068,-7.1e-4 0.160669,0.005 0.121608,0.0153 -0.267683,0.0735 -0.541238,0.12859 -0.813212,0.18723 -0.0019,0.003 -0.0035,0.006 -0.0053,0.009 0.07549,-0.002 0.15017,0.003 0.219408,0.0311 0.08611,0.0348 -0.08396,0.007 -0.234291,-0.004 -0.01975,0.0481 -0.02213,0.1 -0.01056,0.15488 l -9.4e-5,5.2e-4 c 0.60227,0.1019 0.360552,0.0623 1.93e-4,0.002 l -9.4e-5,5.2e-4 c 0.222112,1.01296 5.397533,3.11119 2.385452,3.8307 -2.201413,0.52585 0.213647,-0.0556 -0.582242,0.14553 -0.1813,0.0484 -0.310022,0.0826 -0.463409,0.11196 -0.748503,0.29373 -0.440755,0.22839 -1.345195,0.29078 -0.200719,0.06 -0.401973,0.11802 -0.609987,0.14158 -0.110952,0.0126 -0.216992,0.0169 -0.320655,0.016 -0.0036,0.0155 -0.007,0.0311 -0.01111,0.0466 -0.849793,3.54948 -4.815524,2.70595 -4.516712,-0.55502 -0.197584,-0.0349 -0.394223,-0.0769 -0.589772,-0.12218 -0.0071,-0.002 -0.02008,-0.004 -0.02841,-0.006 -0.04549,0.01 -0.09099,0.02 -0.137107,0.0268 -0.274834,0.0404 -0.549684,0.0972 -0.828219,0.0981 -0.194703,4.5e-4 -0.341746,-0.007 -0.469711,-0.0195 -0.926319,0.40602 -1.787015,0.7088 -2.854873,0.50312 -0.06566,-0.0125 -0.129789,-0.0316 -0.192505,-0.0546 -0.01651,0.003 -0.03307,0.006 -0.04959,0.009 -0.0011,3.2e-4 -0.0026,0.001 -0.0039,0.001 0.178953,0.18431 0.356453,0.37044 0.51954,0.56079 0.138908,0.16216 0.257605,0.33434 0.362048,0.51367 0.111676,0.0488 0.22411,0.0952 0.335329,0.14502 3.576551,1.60077 2.396725,5.83452 -1.229231,4.35367 -0.662466,-0.27055 -0.917225,-0.35145 -1.301795,-0.5538 -0.300544,-0.0212 -0.564238,-0.12589 -0.561438,-0.32288 -0.0035,-0.002 -0.0059,-0.003 -0.0094,-0.006 -0.164199,-0.10025 -0.552042,-0.16503 -0.47007,-0.33566 0.223323,-0.46481 0.530879,-0.88528 0.855331,-1.29616 0.367739,-1.55552 0.597525,-2.42578 0.771503,-2.8371 -0.164543,0.0168 -0.316374,0.0586 -0.412765,0.12625 -0.184528,0.1296 -0.350249,0.27958 -0.5031,0.44273 0.299445,0.0638 0.05396,0.26055 -0.387616,0.47149 0.121686,-0.16497 0.249321,-0.32349 0.387523,-0.47099 -0.01632,-0.003 -0.03228,-0.007 -0.05189,-0.0103 -0.924945,-0.12556 -1.733995,0.61475 -2.591525,0.99136 0.01639,0.015 0.03262,0.0301 0.04872,0.0454 0.106933,0.0511 0.196324,0.0817 0.250974,0.0752 0.468811,-0.0555 1.377983,-0.35477 1.955091,-0.63032 -0.374755,0.50839 -0.692355,1.07704 -1.083142,1.56845 0.187282,0.67775 0.299983,0.79791 0.08772,0.50945 -0.03672,-0.0499 -0.0564,-0.11891 -0.109932,-0.15001 -0.04835,-0.0281 0.136876,0.17428 0.09281,0.13977 -0.0021,-0.002 -0.514877,-0.53288 -0.522602,-0.54092 -0.203901,-0.23743 -0.321463,-0.36524 -0.457651,-0.54164 -0.109435,-0.0593 -0.218931,-0.11847 -0.328366,-0.17775 -0.140121,-0.11576 -0.287025,-0.22396 -0.423211,-0.34418 -0.364367,-0.12971 -0.702898,-0.3132 -1.025485,-0.52556 -0.113978,0.0144 -0.248095,0.028 -0.388702,0.0397 -0.0414,0.0225 -0.03569,0.019 -0.08114,0.0437 -0.163623,0.0602 -0.324303,0.12915 -0.491062,0.18049 -0.574851,0.17704 -1.220604,0.34724 -1.833572,0.37467 -0.02422,0.0119 -0.04906,0.0234 -0.07288,0.0359 -0.543197,0.28571 -1.121135,0.42454 -1.712483,0.58256 -0.433011,0.0948 -0.999887,0.24505 -1.450691,0.23879 -0.185257,-0.003 -0.370386,-0.023 -0.554774,-0.0475 -0.152857,0.035 -0.306353,0.0664 -0.462447,0.0833 -0.287342,0.031 -0.579005,-0.0153 -0.868663,-0.0223 -0.429904,-0.0104 -0.770273,-0.007 -1.201285,-0.0539 -0.799778,-0.087 -0.374617,-0.10295 -0.684148,-0.0869 -0.791392,0.0173 -1.584742,0.036 -2.376364,0.0623 -1.015273,0.0581 -2.039808,0.007 -3.052838,0.0993 -0.168852,0.0154 -0.336014,0.0417 -0.503153,0.0694 0.02369,0.0825 0.04965,0.16129 0.06981,0.24966 0.0657,0.28797 0.0785,0.58443 0.117859,0.87669 0.33069,2.45556 -2.273528,0.46265 -3.783234,-0.41736 -0.121892,0.0331 -0.243937,0.0656 -0.369968,0.0702 -0.187605,0.007 -0.375457,0.004 -0.563481,-0.005 0.112272,0.23942 0.243538,0.53783 0.248052,0.71307 0.0013,0.0516 -0.04533,-0.0933 -0.06799,-0.14008 -0.116972,-0.24148 -0.190624,-0.42817 -0.233235,-0.57623 -0.172734,-0.009 -0.345493,-0.0232 -0.517549,-0.0406 -0.134094,-0.0136 -0.282672,-0.0245 -0.391425,-0.10578 -0.100628,-0.0752 0.243209,0.0576 0.364901,0.0863 0.284154,-0.0322 0.423716,-0.0397 0.516919,-0.0493 -0.0067,-0.0343 -0.01372,-0.0688 -0.01567,-0.0971 0.01116,0.0229 0.03014,0.0672 0.04349,0.0948 0.07998,-0.01 0.140193,-0.0338 0.2224,-0.0759 -0.08672,-0.0186 -0.174353,-0.0471 -0.263244,-0.086 -0.0021,0.0205 -0.0046,0.0409 -0.003,0.0661 -0.01719,-0.0351 -0.03019,-0.0619 -0.04149,-0.0854 -0.0033,-0.002 -0.0065,-0.002 -0.0098,-0.004 -0.166031,0.0264 -0.122825,5.9e-4 -0.792795,0.007 -0.599388,0.006 -0.794956,0.0326 -1.429003,-0.0536 -0.57385,-0.0779 -0.888887,-0.1789 -1.428491,-0.3249 -0.627495,-0.19282 -1.275458,-0.29267 -1.919586,-0.40695 -0.135957,0.0397 -0.273476,0.0741 -0.41011,0.11156 -0.460981,0.20889 -0.947739,0.21024 -1.443789,0.27062 -0.02044,0.002 -0.07662,0.0238 -0.05598,0.024 0.192828,0.003 0.230942,-0.0842 0.178734,0.008 -0.395727,0.20503 -0.796361,0.39564 -1.188769,0.60651 -0.111706,0.06 -0.227785,0.11306 -0.339913,0.17226 -0.146782,0.7967 -0.586733,1.46791 -1.509881,1.36638 -0.555205,-0.0611 -1.023852,-0.16423 -1.415089,-0.3028 0.0845,0.0501 0.167769,0.10134 0.245579,0.15759 0.09032,0.0138 0.199522,-0.0168 0.270788,0.0413 0.04628,0.0378 -0.114856,0.0268 -0.172542,0.0392 -0.374372,0.0785 -0.740462,0.17455 -1.107138,0.2799 0.02971,-0.008 0.05029,-0.0113 0.03616,0.004 -0.05599,0.062 -0.146475,0.0807 -0.218333,0.12349 -0.489271,0.29128 -0.875242,0.40893 -1.414611,0.54684 -0.165754,0.0265 -0.328983,0.0709 -0.496986,0.079 -0.08903,0.004 -0.178643,0.002 -0.267894,-0.002 -0.1711511,0.0361 -0.3425031,0.0711 -0.5136682,0.1072 -0.5220928,-0.0629 -0.8081099,-0.0954 -1.0104822,-0.11827 0.1644379,0.0121 0.2190486,6.1e-4 -0.3963807,-0.11043 -0.014164,-0.003 -0.019426,0.0257 -0.033742,0.0264 -0.095287,0.004 -0.1910238,-0.007 -0.2863598,-0.0134 -0.00107,-7e-5 -0.00314,1.8e-4 -0.00425,2.3e-4 -0.2053974,0.13305 -0.8628909,0.14158 -1.0299245,0.16454 -0.019187,0.003 0.073089,0.0182 0.054362,0.0229 -0.093552,0.0235 -0.1901439,0.0348 -0.2862022,0.047 -0.05835,0.037 -0.1164809,0.0744 -0.1754124,0.11051 -0.082336,0.0504 -0.1696901,0.093 -0.2544087,0.13941 -0.4483646,0.27628 -0.1431908,0.10292 -0.9507507,0.45281 -3.5446809,1.5358 -1.9951867,-8.1395 -1.6852957,-4.2557 0.015218,0.19072 -0.00776,0.0443 0.3937701,-0.19619 0.088045,-0.0482 0.1674476,-0.17567 0.2642465,-0.14427 0.00411,0.001 0.00657,0.003 0.0086,0.005 0.088259,-0.0704 0.1768608,-0.14066 0.2755239,-0.19506 0.4012903,-0.2213 0.8124067,-0.33833 1.2606676,-0.40055 0.2718726,-0.0405 0.4375156,-0.0645 0.6723892,-0.0961 0.016601,-0.009 0.068986,-0.0264 0.070342,-0.0102 0.00758,-9.1e-4 0.014309,-0.002 0.022129,-0.003 0.1061962,-0.0309 0.2121216,-0.0619 0.3182424,-0.0931 0.3283733,-0.0368 0.6551568,-0.0856 0.9848615,-0.11051 0.070488,-0.005 0.1411803,0.0154 0.2118999,0.0202 0.571495,0.0388 0.525785,0.007 1.2059407,0.12149 0.063542,0.0108 0.1750153,0.006 0.2576089,0.0151 0.1577367,-0.0283 0.3155854,-0.0496 0.4445239,-0.0511 0.3495755,-0.21209 0.7425705,-0.36431 1.1081525,-0.53068 0.588447,-0.17045 1.178709,-0.33479 1.781311,-0.43548 0.117761,-0.10643 0.236551,-0.21188 0.362404,-0.3085 0.70942,-0.54462 1.5375,-0.89387 2.326934,-1.30344 0.539963,-0.26364 0.615597,-0.33791 1.237975,-0.47332 0.1941,-0.0422 0.395094,-0.0497 0.592546,-0.0742 -0.06283,0.0194 -0.155446,0.001 -0.188593,0.058 -0.110162,0.18805 1.283191,-0.70473 0.629741,-0.18385 0.05822,-0.0132 0.115702,-0.0296 0.174668,-0.0393 0.0055,-7.9e-4 -0.01599,0.0143 -0.01069,0.0126 0.23312,-0.0766 0.452504,-0.20447 0.696391,-0.23778 0.716177,-0.0978 0.793266,-0.0589 1.253302,0.0343 0.864079,0.16366 1.73876,0.28475 2.582752,0.54583 0.306917,0.0886 0.625751,0.20959 0.947714,0.22076 0.82908,0.0287 1.660682,-0.0678 2.490386,8.1e-4 0.0021,0.002 0.0038,0.005 0.0059,0.008 0.397198,-0.0679 0.420954,-0.0609 1.173417,-0.13911 0.0063,-6.3e-4 0.01248,-9.8e-4 0.01882,-0.002 0.913988,-0.17669 1.834153,-0.34101 2.762985,-0.42324 1.032542,-0.0914 2.075973,-0.0457 3.110755,-0.10196 0.953935,-0.0312 1.909056,-0.0703 2.86455,-0.0517 0.174071,0.0165 0.348123,0.0334 0.52219,0.0499 0.04769,0.0122 0.09435,0.0303 0.143098,0.0364 0.393975,0.0486 0.667599,0.0272 1.085609,0.0466 0.108005,0.005 0.388189,-0.0543 0.32328,0.0308 -0.106169,0.13919 -0.327402,0.12674 -0.491182,0.18991 -0.496702,0.38547 -0.07473,0.048 1.465798,-0.2174 -0.01855,-3.6e-4 -0.0285,-0.001 -0.0098,-0.004 0.02968,-0.004 0.05961,-0.007 0.08962,-0.009 -0.02627,0.004 -0.05418,0.009 -0.07981,0.013 0.03785,7.6e-4 0.123912,-0.001 0.162442,-7.3e-4 0.02947,-0.006 0.05885,-0.0128 0.08831,-0.0192 -0.05658,0.003 -0.113306,0.004 -0.16983,0.007 0.06757,-0.0113 0.133673,-0.0233 0.205375,-0.0342 0.01196,-0.002 0.03559,0.003 0.05176,0.008 0.133128,-0.0287 0.266024,-0.0572 0.399155,-0.0859 0.273174,-0.0582 0.404227,-0.0705 0.650425,-0.17291 0.130988,-0.0545 0.242187,-0.19344 0.384738,-0.18119 0.10889,0.009 -0.187087,0.11336 -0.261707,0.19152 -0.158051,0.1656 -0.646297,0.61522 -0.431184,0.53475 0.740528,-0.277 1.380362,-0.76501 2.070616,-1.14761 0.101203,0.009 0.326963,-0.0622 0.327685,0.0122 0.241806,-0.0472 0.483959,-0.11021 0.712707,-0.19096 -0.770718,0.57223 0.207617,-0.17336 0.607736,-0.28379 0.211999,-0.0585 0.40641,-0.0922 0.575421,-0.11066 0.07788,-0.0632 0.23274,-0.0971 0.461344,-0.10345 0.418709,-0.25591 0.961098,-0.41696 1.626277,-0.42908 0.518753,-0.71712 1.559046,-1.1488 3.012189,-0.79943 0.212147,0.051 0.106044,0.0252 0.316897,0.0778 0.02111,0.006 0.02811,0.008 0.04066,0.0112 0.06657,0.004 0.115835,0.0281 0.470763,0.0633 -0.01239,0.002 -0.02429,0.006 -0.03576,0.0113 -0.03173,0.0149 0.07113,0.006 0.106144,0.002 0.0096,-9.9e-4 0.01854,-0.003 0.0281,-0.004 -0.03724,-0.003 -0.06639,-0.006 -0.0983,-0.0101 0.03769,-0.007 0.07863,-0.004 0.116984,-0.009 0.01288,0.002 0.03958,0.005 0.05812,0.008 0.0031,-4.6e-4 0.0065,-5.9e-4 0.0096,-7.8e-4 8.28e-4,-1e-4 0.0017,-2.1e-4 0.0028,-5.2e-4 0.121757,-0.0243 0.243064,-0.049 0.365065,-0.0722 0.761297,-0.10924 1.459585,-0.43488 2.231199,-0.48713 0.03092,-0.002 0.07958,-0.003 0.127212,-0.004 0.533726,-0.082 1.021114,-0.10673 1.587382,0.0315 0.103163,-0.0458 0.224711,-0.0457 0.337811,-0.0614 0.687874,-0.0952 0.586443,-0.0669 1.286563,-0.0273 0.372182,-0.46479 0.576493,0.26143 0.881546,0.26324 0.03184,1.9e-4 0.0556,-0.0323 0.0866,-0.0389 0.07224,-0.0154 0.146644,-0.0206 0.220412,-0.027 0.186717,-0.0161 0.345775,-0.0195 0.530554,-0.0256 0.155471,0.0232 0.310353,0.0521 0.465658,0.077 -0.0289,-0.0112 -0.04085,-0.0249 -0.01902,-0.0405 0.117075,-0.0847 0.291435,0.0209 0.43678,0.0355 0.33666,0.0339 0.650925,0.095 0.976807,0.17928 0.0021,4e-4 0.0052,8.3e-4 0.0067,8e-4 0.08583,0.0152 0.152059,0.0281 0.237094,0.0441 0.190996,0.0381 0.382148,0.0769 0.573112,0.1152 0.09215,-0.0259 0.183919,-0.0517 0.275972,-0.0779 0.463472,0.0772 0.08782,0.0148 0.364206,0.061 0.0032,-7.1e-4 0.0063,-0.002 0.0095,-0.003 -0.08955,-0.0157 -0.260515,-0.0443 -0.266731,-0.0463 -0.171964,-0.0551 0.356705,-0.0425 0.536107,-0.0476 0.05271,-0.001 0.106349,-0.006 0.160255,-0.009 0.01796,-0.004 0.03591,-0.008 0.05388,-0.0124 0.09585,-0.15426 0.383211,-0.2672 0.943321,-0.32409 0.150091,-0.0152 0.20915,-0.0212 0.210807,-0.0205 z m -1.185612,0.53941 c -0.216693,-0.0367 -0.301177,-0.0513 -0.437041,-0.075 -0.0026,8.3e-4 -0.0052,0.001 -0.0078,0.002 0.328147,0.0547 0.337478,0.0565 0.445035,0.0745 -2.2e-5,-1.6e-4 -1.19e-4,-8.3e-4 -1.92e-4,-0.002 z m -0.133244,-0.15517 c -0.0028,2.5e-4 -0.007,2.2e-4 -0.0096,7.8e-4 -0.05944,0.0104 -0.117571,0.0258 -0.175308,0.0428 0.06146,-0.015 0.123114,-0.0296 0.184921,-0.0435 z M 4.472637,196.46134 c -0.00183,-3.4e-4 -0.00595,0.002 -0.011914,0.008 -0.2453306,0.23829 -0.4497972,0.44225 -0.6235174,0.61932 0.093091,0.0315 0.119888,0.0746 0.1518137,0.099 0.1734237,-0.15201 0.2478381,-0.29658 0.3985053,-0.5318 0.021352,-0.0543 0.098264,-0.19169 0.085111,-0.19413 z m 50.423441,10.16688 c -0.01186,-0.003 -0.02839,-0.004 -0.04651,-0.005 0.01365,0.004 0.02689,0.007 0.04065,0.0112 0.129682,0.0376 0.249614,0.10398 0.37446,0.15596 -0.06738,-0.0321 -0.284253,-0.14098 -0.3686,-0.16214 z M 4.7705785,196.78425 c -0.00264,-10e-4 -0.011476,0.002 -0.028187,0.0101 -0.2452895,0.11785 -0.4735664,0.26675 -0.7044829,0.41102 0.052151,0.004 0.1441731,-0.0273 0.3616304,-0.12908 0.09994,-0.0823 0.389688,-0.2855 0.3710337,-0.29208 z m -0.8667661,0.47217 c -0.074679,0.008 -0.1491335,0.0129 -0.224552,0.012 -0.00446,-8e-5 -0.011501,-4.1e-4 -0.016226,-5.4e-4 -0.071484,0.0744 -0.1359915,0.14316 -0.1941416,0.20549 0.089693,-0.0232 0.1792077,-0.0475 0.2564783,-0.0954 0.069116,-0.0428 0.1272955,-0.0828 0.1784425,-0.12145 z m 46.5086846,9.87086 c -0.0256,0.004 -0.05113,0.008 -0.07681,0.011 0.0037,1.9e-4 0.0092,7.5e-4 0.01299,9.7e-4 0.02155,-0.004 0.04331,-0.007 0.06484,-0.0118 -2.62e-4,-3e-5 -7.85e-4,-1.4e-4 -10e-4,-2.2e-4 z m -0.820595,-0.0521 c -0.05668,0.004 -0.137116,0.0138 -0.09983,0.0101 0.04259,-0.004 0.06979,-0.007 0.09983,-0.0101 z m 14.512069,3.43287 c -0.02519,-0.004 -0.156571,0.10002 -0.482524,0.42214 0.05271,-0.0154 0.105436,-0.0308 0.157363,-0.0485 0.08958,-0.0304 0.369617,-0.36686 0.325161,-0.37367 z m -1.993926,0.97385 c -0.0214,-0.004 -0.04286,-0.008 -0.06429,-0.0117 -0.06194,0.0181 -0.123964,0.0363 -0.185919,0.0549 0.01361,-0.002 0.02641,-0.004 0.03951,-0.006 0.07038,-0.012 0.281366,-0.0244 0.21068,-0.0373 z m -0.100073,-0.0178 c -0.331167,-0.0604 -0.663819,-0.11757 -0.997662,-0.15719 -0.0033,0.014 -0.0062,0.0282 -0.0098,0.0422 0.349492,0.0444 0.757361,0.0946 0.976384,0.12618 0.01042,-0.003 0.02063,-0.008 0.031,-0.0112 z m -17.372993,-3.1735 c -0.09244,-5.6e-4 -0.200988,0.004 -0.328323,0.0176 -0.08441,0.0685 -0.08232,0.17011 -0.02859,0.29254 0.08541,-0.0912 0.179826,-0.17749 0.284051,-0.25689 -0.04917,-0.003 -0.08816,-0.004 -0.148871,-0.0102 -0.06991,-0.007 0.0334,-0.0111 0.181323,-0.0148 0.01311,-0.01 0.02699,-0.0187 0.0404,-0.0282 z m 11.468865,2.7024 -9.7e-5,5.2e-4 c -0.01632,-0.003 -0.03794,-0.006 -0.04882,-0.004 -0.04805,0.007 -0.09569,0.0172 -0.143069,0.0277 0.06954,-0.003 0.13974,-0.002 0.208091,-0.0142 0.01086,-0.002 3e-6,-0.006 -0.01611,-0.01 z m -13.939788,-2.06086 c -0.03424,-0.007 -0.06744,-0.0113 -0.09552,-0.008 -0.03581,0.004 0.06244,0.014 0.105603,0.0105 -0.0034,-7.1e-4 -0.0068,-0.001 -0.01016,-0.002 z m 9.021046,2.99412 c 0.04656,0.063 0.09684,0.12835 0.152036,0.1941 -0.0039,-0.0819 -0.062,-0.14636 -0.152036,-0.1941 z m -3.527687,2.17479 c 0.0335,0.0234 0.07294,0.0383 0.108468,0.0589 -0.03617,-0.0196 -0.0723,-0.0393 -0.108468,-0.0589 z m -5.708288,-0.6831 c -0.197229,-0.0196 -0.294596,-0.0314 -0.0088,0.005 0.0031,-0.002 0.0058,-0.004 0.0088,-0.005 z m -29.431864,-0.98803 c -0.282969,0.17326 -0.467534,0.47841 -0.577398,0.83379 0.0048,-0.0115 0.0088,-0.023 0.01361,-0.0346 0.126445,-0.30133 0.365383,-0.53879 0.563776,-0.79923 z m 6.469448,1.58394 c -0.26154,-0.051 -0.29714,-0.0114 0.03653,0.008 -0.01116,-0.002 -0.02611,-0.006 -0.03653,-0.008 z M 9.8512061,213.1125 c -0.059475,0.002 -0.1099614,0.0113 -0.1352457,0.034 0.045137,-0.0113 0.090154,-0.0226 0.1352457,-0.034 z m -3.3265335,0.0595 c -0.00326,4.3e-4 -0.00279,5.2e-4 -0.00597,9.6e-4 -1.458e-4,5.1e-4 -4.166e-4,9.9e-4 -7.084e-4,9.4e-4 0.00227,-6.3e-4 0.00438,-0.002 0.00665,-0.002 z m 9.4308344,2.29181 c -0.111269,0.10023 -0.248268,0.24257 -0.292595,0.2867 0.09415,-0.0877 0.229289,-0.14554 0.282517,-0.26298 0.0036,-0.008 0.0065,-0.0158 0.01008,-0.0237 z m -5.9841674,2.16133 c -0.092174,-0.005 -0.1842821,-0.0106 -0.2763705,-0.0104 -0.05767,10e-5 0.1146832,0.0261 0.1721038,0.0217 0.03491,-0.003 0.069556,-0.007 0.1042681,-0.0113 z M 7.0204992,217.5127 c -0.055975,0.0371 -0.1123027,0.0736 -0.1685235,0.1103 0.1064604,-0.0646 0.2323904,-0.1526 0.1685235,-0.1103 z" />
    </clipPath>
    <marker
       style="overflow:visible"
       id="Sketch"
       refX="0"
       refY="0"
       orient="auto-start-reverse"
       inkscape:stockid="Sketch"
       markerWidth="7.5655537"
       markerHeight="6.7364779"
       viewBox="0 0 7.5655539 6.7364778"
       inkscape:isstock="true"
       inkscape:collect="always"
       preserveAspectRatio="xMidYMid">
      <path
         style="fill:none;stroke:context-stroke;stroke-width:0.4;stroke-linecap:round"
         d="m -4.5421538,-3.2452189 3.83900644,2.60235235 0.56348102,0.59255887 L -2.4921466,1.1808717 -4.4106004,2.139946 -4.5795251,2.8245356 -4.703996,3.0734773 -4.3128019,2.6822832 -3.9749524,2.3088707 0.66603196,-0.12720162 0.02589622,-0.32279868 -1.7613224,-0.60366199 -3.580874,-2.0472634 -4.3186004,-2.392437 l -1.2937699,-0.2549423 2.1825172,0.042166 0.6996091,1.0554873 1.4406512,0.1145833 1.20879971,0.91674665 1.53333299,0.47138389 -1.85995289,1.23785256 -2.03832621,0.9224332 -1.5469949,0.9779853"
         id="path22096"
         sodipodi:nodetypes="ccc" />
    </marker>
    <marker
       id="marker369"
       orient="auto-start-reverse"
       refY="0"
       refX="0"
       markerHeight="1.6900001"
       markerWidth="0.91100001">
      <g
         transform="scale(1.3434313)"
         id="g367">
        <path
           d="M -1.55415,2.0722 C -1.42464,1.29512 0,0.1295 0.38852,0 0,-0.1295 -1.42464,-1.29512 -1.55415,-2.0722"
           style="fill:none;stroke:#000000;stroke-width:0.6;stroke-linecap:round;stroke-linejoin:round;stroke-miterlimit:10;stroke-dasharray:none;stroke-opacity:1"
           inkscape:connector-curvature="0"
           id="path365" />
      </g>
    </marker>
    <inkscape:path-effect
       effect="spiro"
       id="path-effect3456"
       is_visible="true"
       lpeversion="1" />
    <marker
       id="marker376"
       orient="auto-start-reverse"
       refY="0"
       refX="0"
       markerHeight="1.6900001"
       markerWidth="0.91100001">
      <g
         transform="scale(1.3434313)"
         id="g374">
        <path
           d="M -1.55415,2.0722 C -1.42464,1.29512 0,0.1295 0.38852,0 0,-0.1295 -1.42464,-1.29512 -1.55415,-2.0722"
           style="fill:none;stroke:#000000;stroke-width:0.6;stroke-linecap:round;stroke-linejoin:round;stroke-miterlimit:10;stroke-dasharray:none;stroke-opacity:1"
           inkscape:connector-curvature="0"
           id="path372" />
      </g>
    </marker>
    <inkscape:path-effect
       effect="spiro"
       id="path-effect3476"
       is_visible="true"
       lpeversion="1" />
  </defs>
  <sodipodi:namedview
     id="base"
     pagecolor="#ffffff"
     bordercolor="#666666"
     borderopacity="1.0"
     inkscape:pageopacity="0.0"
     inkscape:pageshadow="2"
     inkscape:zoom="1.9887478"
     inkscape:cx="261.72248"
     inkscape:cy="164.42507"
     inkscape:document-units="mm"
     inkscape:current-layer="layer1"
     showgrid="false"
     showborder="true"
     width="200mm"
     showguides="true"
     inkscape:guide-bbox="true"
     inkscape:window-width="3317"
     inkscape:window-height="1392"
     inkscape:window-x="20"
     inkscape:window-y="20"
     inkscape:window-maximized="1"
     inkscape:showpageshadow="2"
     inkscape:pagecheckerboard="0"
     inkscape:deskcolor="#d1d1d1">
    <inkscape:grid
       type="xygrid"
       id="grid815"
       units="mm"
       spacingx="10"
       spacingy="10"
       empspacing="4"
       dotted="false"
       originx="-73.793813"
       originy="4.9019931" />
  </sodipodi:namedview>
  <metadata
     id="metadata5">
    <rdf:RDF>
      <cc:Work
         rdf:about="">
        <dc:format>image/svg+xml</dc:format>
        <dc:type
           rdf:resource="http://purl.org/dc/dcmitype/StillImage" />
        <dc:title />
      </cc:Work>
    </rdf:RDF>
  </metadata>
  <g
     inkscape:label="Layer 1"
     inkscape:groupmode="layer"
     id="layer1"
     transform="translate(-73.793808,-172.09801)">
    <rect
       style="fill:none;stroke:#000000;stroke-width:0.140454"
       id="rect1119"
       width="65.511047"
       height="26.593477"
       x="0.58843094"
       y="205.27849"
       transform="matrix(0.94806337,-0.31808151,0.2997349,0.95402253,26.044232,-2.627938)"
       clip-path="url(#clipPath1457)" />
    <path
       style="fill:none;stroke:#000000;stroke-width:0.264583px;stroke-linecap:butt;stroke-linejoin:miter;stroke-opacity:1"
       d="m 88.951578,198.95233 c -5.235297,3.1089 -9.660668,7.56873 -12.728856,12.82799 -0.675993,1.15874 -1.289906,2.36168 -1.699975,3.63897 -1.193,3.71599 -0.537785,7.91092 1.448383,11.27052 1.986169,3.35961 5.219663,5.89744 8.838063,7.35997 3.6184,1.46253 7.60375,1.89132 11.495027,1.59171 3.89128,-0.29962 7.7007,-1.30829 11.3722,-2.63188 10.76493,-3.88081 20.33523,-10.40692 29.93727,-16.63148 5.58056,-3.61762 11.23878,-7.17356 16.23988,-11.55749 5.00111,-4.38393 9.36455,-9.68249 11.70454,-15.90779 0.58167,-1.54747 1.03675,-3.1513 1.21498,-4.79485 0.17824,-1.64355 0.0735,-3.33131 -0.44017,-4.90267 -0.96507,-2.95233 -3.43076,-5.37012 -6.40144,-6.2771 -2.97069,-0.90698 -6.36636,-0.27872 -8.81589,1.6311"
       id="path1501"
       inkscape:path-effect="#path-effect1503"
       inkscape:original-d="m 88.951578,198.95233 c -3.870965,2.18899 -8.857359,10.63952 -12.728856,12.82799 -3.871494,2.18846 -1.038898,-1.20404 -1.699975,3.63897 -0.661078,4.84301 21.593835,13.64019 33.153673,17.59032 11.55983,3.95014 20.95906,-12.78822 29.93727,-16.63148 8.9782,-3.84325 18.13813,-18.52212 27.94442,-27.46528 9.80628,-8.94315 0.5168,-6.46475 0.77481,-9.69752 0.258,-3.23277 -10.14463,-3.09707 -15.21733,-4.646"
       sodipodi:nodetypes="cssssssc" />
    <path
       style="fill:none;fill-opacity:1;stroke:#000000;stroke-width:0.280882;stroke-linecap:butt;stroke-linejoin:miter;stroke-dasharray:1.05331, 1.05331;stroke-opacity:1;marker-start:none;marker-end:none"
       d="m 88.951576,198.95233 c 6.201775,-2.56581 12.526174,-4.83518 18.944394,-6.7978 7.68876,-2.35113 15.52223,-4.26579 23.04006,-7.11659 7.10141,-2.69289 13.88843,-6.21381 20.17956,-10.46861"
       id="path1505"
       inkscape:path-effect="#path-effect1507"
       inkscape:original-d="m 88.951576,198.95233 c 6.315065,-2.26567 12.629864,-4.5316 18.944394,-6.7978 6.31454,-2.26619 15.36031,-4.74413 23.04006,-7.11659 7.67976,-2.37246 13.4533,-6.97881 20.17956,-10.46861" />
    <path
       style="fill:none;stroke:#000000;stroke-width:0.264583px;stroke-linecap:butt;stroke-linejoin:miter;stroke-opacity:1"
       d="m 79.884866,216.37813 c 1.746014,-1.63641 3.530944,-3.23129 5.35277,-4.78285 1.990577,-1.69528 4.025205,-3.33883 6.101138,-4.92844"
       id="path1525"
       inkscape:path-effect="#path-effect1527"
       inkscape:original-d="m 79.884866,216.37813 c 1.713994,-1.5896 3.639304,-3.19272 5.35277,-4.78285 1.713465,-1.59013 3.839644,-4.01463 6.101138,-4.92844"
       sodipodi:nodetypes="csc" />
    <path
       style="fill:none;fill-opacity:1;stroke:#000000;stroke-width:0.280882;stroke-linecap:butt;stroke-linejoin:miter;stroke-dasharray:1.05331, 1.05331;stroke-opacity:1;marker-start:none;marker-end:none"
       d="m 91.338774,206.66684 c 3.194947,-2.67587 6.724602,-4.9517 10.480516,-6.75755 6.37811,-3.06661 13.41079,-4.76318 20.48556,-4.94195"
       id="path1545"
       inkscape:path-effect="#path-effect1547"
       inkscape:original-d="m 91.338774,206.66684 c 3.49377,-2.25225 6.987276,-4.50477 10.480516,-6.75755 3.49324,-2.25278 13.65731,-3.29437 20.48556,-4.94195" />
    <path
       style="fill:#000000;fill-opacity:1;stroke:none;stroke-width:0.280882;stroke-dasharray:1.05331, 1.05331;stroke-opacity:1;marker-start:none;marker-end:none"
       id="path1614"
       sodipodi:type="arc"
       sodipodi:cx="122.51764"
       sodipodi:cy="194.87727"
       sodipodi:rx="0.63928396"
       sodipodi:ry="0.63928396"
       sodipodi:start="0"
       sodipodi:end="6.2807077"
       sodipodi:open="true"
       sodipodi:arc-type="chord"
       d="m 123.15692,194.87727 a 0.63928396,0.63928396 0 0 1 -0.63888,0.63929 0.63928396,0.63928396 0 0 1 -0.63968,-0.63849 0.63928396,0.63928396 0 0 1 0.63809,-0.64008 0.63928396,0.63928396 0 0 1 0.64047,0.6377 z" />
    <path
       style="fill:none;fill-opacity:1;stroke:#000000;stroke-width:0.280882;stroke-linecap:butt;stroke-linejoin:miter;stroke-dasharray:none;stroke-opacity:1;marker-start:none;marker-end:url(#marker-arrow-1.0616)"
       d="m 122.64757,194.91528 26.54509,2.20724"
       id="path1622"
       sodipodi:nodetypes="cc" />
    <rect
       style="fill:none;stroke:#000000;stroke-width:0.140454"
       id="rect1663"
       width="65.511047"
       height="26.593477"
       x="0.58843094"
       y="205.27849"
       transform="matrix(0.94806337,-0.31808151,0.2997349,0.95402253,65.027042,53.384703)"
       clip-path="url(#clipPath1457)" />
    <text
       style="font-size:2.64583px;font-family:monospace;-inkscape-font-specification:'monospace, Normal';fill:#000000;fill-opacity:1;stroke:none;stroke-width:0.264583"
       xml:space="preserve"
       id="text1679"
       y="226.9162"
       x="80.363838"><tspan
         sodipodi:role="line"
         id="tspan1677"
         x="80.363838"
         y="226.9162"
         style="stroke-width:0.264583">$\text{manifold}$</tspan></text>
    <text
       style="font-size:2.64583px;font-family:monospace;-inkscape-font-specification:'monospace, Normal';fill:#000000;fill-opacity:1;stroke:none;stroke-width:0.264583"
       xml:space="preserve"
       id="text1691"
       y="232.68576"
       x="87.788818"><tspan
         sodipodi:role="line"
         id="tspan1689"
         x="87.788818"
         y="232.68576"
         style="stroke-width:0.264583">$M$</tspan></text>
    <text
       style="font-size:2.64583px;font-family:monospace;-inkscape-font-specification:'monospace, Normal';fill:#000000;fill-opacity:1;stroke:none;stroke-width:0.264583"
       xml:space="preserve"
       id="text1703"
       y="261.53943"
       x="100.06305"><tspan
         sodipodi:role="line"
         id="tspan1701"
         x="100.06305"
         y="261.53943"
         style="stroke-width:0.264583">$\text{Tangent Space}$</tspan></text>
    <text
       style="font-size:2.64583px;font-family:monospace;-inkscape-font-specification:'monospace, Normal';fill:#000000;fill-opacity:1;stroke:none;stroke-width:0.264583"
       xml:space="preserve"
       id="text1727"
       y="248.4929"
       x="141.76208"><tspan
         sodipodi:role="line"
         id="tspan1725"
         x="141.76208"
         y="248.4929"
         style="stroke-width:0.264583">$\text{origin}$</tspan></text>
    <text
       style="font-size:2.64583px;font-family:monospace;-inkscape-font-specification:'monospace, Normal';fill:#000000;fill-opacity:1;stroke:none;stroke-width:0.264583"
       xml:space="preserve"
       id="text1739"
       y="248.73164"
       x="153.19766"><tspan
         sodipodi:role="line"
         id="tspan1737"
         x="153.19766"
         y="248.73164"
         style="stroke-width:0.264583">$O$</tspan></text>
    <path
       style="fill:#000000;fill-opacity:1;stroke:none;stroke-width:0.280882;stroke-dasharray:1.05331, 1.05331;stroke-opacity:1;marker-start:none;marker-end:none"
       id="path1749"
       sodipodi:type="arc"
       sodipodi:cx="135.45216"
       sodipodi:cy="213.40071"
       sodipodi:rx="0.63928396"
       sodipodi:ry="0.63928396"
       sodipodi:start="0"
       sodipodi:end="6.2807077"
       sodipodi:open="true"
       sodipodi:arc-type="chord"
       d="m 136.09145,213.40071 a 0.63928396,0.63928396 0 0 1 -0.63889,0.63928 0.63928396,0.63928396 0 0 1 -0.63968,-0.63849 0.63928396,0.63928396 0 0 1 0.6381,-0.64007 0.63928396,0.63928396 0 0 1 0.64047,0.6377 z" />
    <path
       style="fill:#000000;fill-opacity:1;stroke:none;stroke-width:0.280882;stroke-dasharray:1.05331, 1.05331;stroke-opacity:1;marker-start:none;marker-end:none"
       id="path1751"
       sodipodi:type="arc"
       sodipodi:cx="158.46407"
       sodipodi:cy="247.53999"
       sodipodi:rx="0.63928396"
       sodipodi:ry="0.63928396"
       sodipodi:start="0"
       sodipodi:end="6.2807077"
       sodipodi:open="true"
       sodipodi:arc-type="chord"
       d="m 159.10335,247.53999 a 0.63928396,0.63928396 0 0 1 -0.63889,0.63929 0.63928396,0.63928396 0 0 1 -0.63968,-0.63849 0.63928396,0.63928396 0 0 1 0.6381,-0.64008 0.63928396,0.63928396 0 0 1 0.64047,0.6377 z" />
    <path
       style="fill:none;fill-opacity:1;stroke:#000000;stroke-width:0.280882;stroke-linecap:butt;stroke-linejoin:miter;stroke-dasharray:1.05331, 1.05331;stroke-opacity:1;marker-start:none;marker-end:url(#Sketch)"
       d="m 135.49805,213.56017 -12.51332,-18.4076"
       id="path1753" />
    <path
       style="fill:none;stroke:#000000;stroke-width:0.264583px;stroke-linecap:butt;stroke-linejoin:miter;stroke-opacity:1"
       d="m 135.43815,213.47443 23.40066,34.43794"
       id="path3336"
       sodipodi:nodetypes="cc" />
    <path
       style="fill:none;fill-opacity:1;stroke:#000000;stroke-width:0.280882;stroke-linecap:butt;stroke-linejoin:miter;stroke-dasharray:none;stroke-opacity:1;marker-start:none;marker-end:url(#marker-arrow-1.0616)"
       d="m 158.7668,247.57664 24.9237,3.64875"
       id="path3338"
       sodipodi:nodetypes="cc" />
    <text
       style="font-size:2.64583px;font-family:monospace;-inkscape-font-specification:'monospace, Normal';fill:#000000;fill-opacity:1;stroke:none;stroke-width:0.264583"
       xml:space="preserve"
       id="text3355"
       y="246.61009"
       x="164.27408"><tspan
         sodipodi:role="line"
         id="tspan3353"
         x="164.27408"
         y="246.61009"
         style="stroke-width:0.264583">$\text{velocity vector}$</tspan></text>
    <text
       style="font-size:2.64583px;font-family:monospace;-inkscape-font-specification:'monospace, Normal';fill:#000000;fill-opacity:1;stroke:none;stroke-width:0.264583"
       xml:space="preserve"
       id="text3367"
       y="256.77295"
       x="166.72775"><tspan
         sodipodi:role="line"
         x="166.72775"
         y="256.77295"
         style="stroke-width:0.264583"
         id="tspan440">$\dfrac{\mathrm{d}p}{\mathrm{d}t}$</tspan></text>
    <path
       style="fill:none;fill-opacity:1;stroke:#000000;stroke-width:0.280882;stroke-linecap:butt;stroke-linejoin:miter;stroke-dasharray:1.05331, 1.05331;stroke-opacity:1;marker-start:none;marker-end:none"
       d="m 122.34124,195.07773 c 3.84338,1.38994 7.82788,2.38936 11.87228,2.97789 0.92807,0.13505 1.86822,0.25068 2.74904,0.5727 0.88083,0.32202 1.7125,0.87748 2.16985,1.69625 0.345,0.61765 0.45465,1.36308 0.30211,2.05391 -0.15253,0.69083 -0.56587,1.32079 -1.13887,1.73574"
       id="path3454"
       inkscape:path-effect="#path-effect3456"
       inkscape:original-d="m 122.34124,195.07773 c 3.95769,0.99289 7.91512,1.98553 11.87228,2.97789 3.95717,0.99237 3.27952,1.5129 4.91889,2.26895 1.63936,0.75605 -1.09796,2.64328 -0.83676,3.78965"
       sodipodi:nodetypes="cssc" />
    <path
       style="fill:none;fill-opacity:1;stroke:#000000;stroke-width:0.280882;stroke-linecap:butt;stroke-linejoin:miter;stroke-dasharray:none;stroke-opacity:1;marker-start:none;marker-end:url(#marker-arrow-1.0616)"
       d="m 138.29565,204.11422 c -0.96829,0.9622 -2.02324,1.83716 -3.1479,2.61083 -4.87189,3.35142 -10.85876,4.69361 -15.94834,7.70418 -2.11412,1.25054 -4.12022,2.85542 -5.23275,5.04531 -0.46844,0.92208 -0.76666,1.93029 -0.87518,2.95883"
       id="path3474"
       inkscape:path-effect="#path-effect3476"
       inkscape:original-d="m 138.29565,204.11422 c -1.00424,0.91533 -2.09833,1.74082 -3.1479,2.61083 -1.04956,0.87001 -10.63196,5.13638 -15.94834,7.70418 -5.31638,2.56779 -3.48824,3.3638 -5.23275,5.04531 -1.74451,1.6815 -0.58319,1.97282 -0.87518,2.95883" />
    <text
       style="font-size:2.64583px;font-family:monospace;-inkscape-font-specification:'monospace, Normal';fill:#000000;fill-opacity:1;stroke:none;stroke-width:0.264583"
       xml:space="preserve"
       id="text3573"
       y="220.04384"
       x="104.27421"><tspan
         sodipodi:role="line"
         id="tspan3571"
         x="104.27421"
         y="220.04384"
         style="stroke-width:0.264583">$\text{path}$</tspan></text>
    <text
       style="font-size:2.64583px;font-family:monospace;-inkscape-font-specification:'monospace, Normal';fill:#000000;fill-opacity:1;stroke:none;stroke-width:0.264583"
       xml:space="preserve"
       id="text3585"
       y="221.36543"
       x="115.11875"><tspan
         sodipodi:role="line"
         id="tspan3583"
         x="115.11875"
         y="221.36543"
         style="stroke-width:0.264583">$p$</tspan></text>
    <text
       style="font-size:2.64583px;font-family:monospace;-inkscape-font-specification:'monospace, Normal';fill:#000000;fill-opacity:1;stroke:none;stroke-width:0.264583"
       xml:space="preserve"
       id="text4308"
       x="119.72269"
       y="193.12196"><tspan
         sodipodi:role="line"
         id="tspan4306"
         x="119.72269"
         y="193.12196"
         style="stroke-width:0.264583">$x$</tspan></text>
    <text
       style="font-size:2.64583px;font-family:monospace;-inkscape-font-specification:'monospace, Normal';fill:#000000;fill-opacity:1;stroke:none;stroke-width:0.264583"
       xml:space="preserve"
       id="text4320"
       x="109.1609"
       y="267.80746"><tspan
         sodipodi:role="line"
         id="tspan4318"
         x="109.1609"
         y="267.80746"
         style="stroke-width:0.264583">$\tangentspace{M}{x}$</tspan></text>
  </g>
</svg>
